<?xml version="1.0" encoding="UTF-8" standalone="no"?>
<svg
   version="1.1"
   id="Layer_1"
   x="0px"
   y="0px"
   width="100%"
   viewBox="0 -24 1024 1024"
   enable-background="new 0 0 1024 976"
   xml:space="preserve"
   sodipodi:docname="file.svg"
   inkscape:version="1.4.4 (dcaf3e7d9e, 2026-05-05)"
   xmlns:inkscape="http://www.inkscape.org/namespaces/inkscape"
   xmlns:sodipodi="http://sodipodi.sourceforge.net/DTD/sodipodi-0.dtd"
   xmlns="http://www.w3.org/2000/svg"
   xmlns:svg="http://www.w3.org/2000/svg"><defs
   id="defs17" /><sodipodi:namedview
   id="namedview17"
   pagecolor="#ffffff"
   bordercolor="#000000"
   borderopacity="0.25"
   inkscape:showpageshadow="2"
   inkscape:pageopacity="0.0"
   inkscape:pagecheckerboard="0"
   inkscape:deskcolor="#d1d1d1"
   inkscape:zoom="1.1495902"
   inkscape:cx="511.92157"
   inkscape:cy="488"
   inkscape:window-width="3440"
   inkscape:window-height="1373"
   inkscape:window-x="0"
   inkscape:window-y="0"
   inkscape:window-maximized="1"
   inkscape:current-layer="Layer_1" />
<path
   fill="#000000"
   opacity="1.000000"
   stroke="none"
   d=" M599.106873,583.758423   C614.932678,592.088745 628.396362,602.897949 640.312134,615.646179   C642.922302,618.438660 645.210815,619.573181 649.331116,618.655396   C670.183228,614.010620 691.233521,627.628418 696.124146,648.501160   C701.231567,670.299255 688.653442,691.222900 667.178833,696.651611   C636.348572,704.445251 609.612488,677.251709 617.939331,646.498779   C618.639526,643.912720 618.945740,641.821838 616.877869,639.633240   C601.837830,623.715576 584.737427,611.139771 562.976074,606.048645   C548.362488,602.629761 533.877441,604.084045 519.492188,607.490417   C496.093567,613.031250 475.023163,623.324097 456.477844,638.682678   C455.098358,639.825134 453.452606,640.787659 452.882080,642.768799   C453.995728,644.273804 455.762787,644.296448 457.322083,644.596252   C480.826996,649.115540 496.497803,664.791382 501.208038,688.670593   C502.400055,694.713562 503.550507,700.789062 503.310516,706.993103   C503.180542,710.351685 504.443481,712.368225 507.515594,714.102722   C523.080261,722.890137 530.045715,736.591248 528.047913,754.152588   C526.136108,770.958008 516.529663,782.423096 500.326599,787.381653   C483.820496,792.432922 469.245026,788.186157 457.678497,775.435181   C442.547852,758.755127 445.843750,730.190796 464.490570,717.111938   C468.864410,714.044189 470.265015,710.942566 469.777863,706.005371   C469.250641,700.662048 468.304443,695.434570 466.437317,690.437500   C463.115723,681.547668 456.152161,677.818542 447.051666,677.298706   C427.580139,676.186401 411.253754,683.973633 397.957306,697.070312   C361.989594,732.497498 326.677246,768.590210 291.117004,804.430908   C290.316650,805.237549 289.304413,805.946411 289.117004,807.966980   C294.010712,811.031006 299.086151,814.440857 304.373962,817.481323   C335.027740,835.106384 367.518951,848.230896 401.896973,856.507446   C406.830383,857.695190 408.072540,859.725464 406.990753,864.398926   C404.964966,873.150574 403.102814,881.948730 401.515137,890.789062   C400.801697,894.761414 399.242310,895.554016 395.385712,894.626282   C351.605408,884.095154 310.616516,866.987061 272.562653,842.894287   C260.451050,835.226135 248.597275,827.180176 237.302399,818.337708   C235.489243,816.918335 233.476608,815.673706 232.017883,813.104797   C235.052414,809.853699 237.997711,806.510132 241.138199,803.361267   C311.625610,732.685913 382.193787,662.090881 452.603180,591.337891   C473.875336,569.961853 494.515961,547.938171 519.098328,530.179077   C556.845886,502.908905 598.358276,484.635193 644.591187,477.602234   C662.563477,474.868347 680.585022,473.062683 698.776245,474.663757   C703.027649,475.037964 705.736328,473.791748 708.233826,470.028839   C717.472168,456.109070 734.523193,450.272156 751.388794,454.716492   C766.724731,458.757690 778.254456,473.136200 780.549622,488.746826   C782.820984,504.195587 773.019348,525.180908 752.569641,531.544250   C734.518921,537.161133 715.322876,529.738403 705.450012,512.700500   C703.797485,509.848663 702.069153,508.351135 698.504150,508.221497   C645.644043,506.298828 596.986450,519.628845 552.450745,548.100769   C542.611755,554.390869 533.347534,561.474670 524.320374,568.867615   C523.221008,569.767883 521.803223,570.553894 521.583618,573.190247   C548.491211,568.559021 574.366272,571.069641 599.106873,583.758423  z"
   id="path1"
   style="fill:#41b6e6;fill-opacity:1" />
<path
   fill="#000000"
   opacity="1.000000"
   stroke="none"
   d=" M95.448402,586.321045   C103.943642,584.285339 112.094070,582.559448 120.121284,580.379761   C124.292084,579.247192 126.164955,580.352478 127.179199,584.541016   C135.429703,618.613647 148.794174,650.613464 166.582474,680.791138   C167.428101,682.225769 168.322495,683.633484 169.248550,685.017395   C169.507050,685.403748 169.960449,685.659668 170.714172,686.313477   C177.027695,680.150757 183.370361,674.080994 189.579422,667.877563   C215.748001,641.732849 242.175629,615.837769 267.911591,589.273132   C284.182648,572.478149 290.137817,551.785767 286.604034,528.595459   C285.530121,521.547791 281.685150,516.357178 274.839569,513.615234   C271.453918,512.259155 269.159241,512.720703 266.886017,516.000305   C258.566071,528.003662 246.872360,533.638794 232.281021,533.301514   C212.730957,532.849609 195.937408,517.322937 193.981277,496.599518   C192.348511,479.301819 202.174759,460.931946 222.248642,455.027618   C241.578995,449.342010 259.859985,457.138000 269.569763,475.055817   C270.921539,477.550293 272.552032,478.712830 275.280426,479.087585   C278.401398,479.516205 281.501190,480.251801 284.539490,481.105530   C306.458466,487.264923 319.351135,503.955780 321.340424,529.712646   C321.476807,531.478943 320.818665,533.383606 322.069885,534.955200   C323.502319,535.566284 324.385101,534.634338 325.213074,533.897400   C343.315521,517.786011 359.188171,500.191132 367.078918,476.472015   C381.015198,434.580200 371.930695,401.862488 339.240570,371.768860   C337.504608,370.170807 335.931305,369.728271 333.444946,370.388550   C316.140778,374.984100 301.117462,370.749176 290.066254,356.649841   C279.720703,343.450745 278.428894,328.425354 286.146393,313.440491   C294.118988,297.960297 307.618530,291.059143 324.774231,291.845734   C347.931122,292.907440 365.732788,315.698334 361.375244,338.577759   C360.454803,343.410675 361.605072,346.494659 365.167084,349.832886   C386.968536,370.264679 401.516083,394.732330 405.745911,424.739502   C406.610779,430.875000 406.297577,437.041901 406.392120,443.200287   C406.418884,444.943207 405.737885,446.914093 407.595215,448.299072   C409.855408,448.489502 410.701843,446.623993 411.797974,445.270081   C438.353302,412.467987 456.367126,375.640167 465.067352,334.193329   C468.507294,317.805847 469.932007,301.318298 470.718597,284.688660   C470.871552,281.455078 469.706757,279.621368 466.813873,277.997192   C451.509308,269.404694 444.244812,250.825226 448.811951,232.665695   C452.930450,216.289993 468.732880,203.935638 485.922546,203.652603   C505.082947,203.337112 520.407715,214.342056 525.788086,232.280640   C531.103027,250.001083 524.192749,267.965271 507.932831,278.029266   C505.103973,279.780121 504.236328,281.820435 504.244385,284.953857   C504.336151,320.518768 497.352600,354.735748 484.378937,387.781738   C469.628448,425.353516 448.075226,458.547791 419.637909,487.159149   C336.590027,570.715454 253.432159,654.162415 170.292297,737.627197   C168.092926,739.835144 166.148575,742.390076 163.037979,743.966736   C160.277481,742.180115 158.940735,739.213318 157.088028,736.737915   C124.717010,693.487976 102.295715,645.565125 89.356697,593.119202   C87.890129,587.174744 91.508911,587.245361 95.448402,586.321045  z"
   id="path2"
   style="fill:#41b6e6;fill-opacity:1" />
<path
   fill="#000000"
   opacity="1.000000"
   stroke="none"
   d=" M198.758087,785.246765   C194.284927,780.736023 190.187988,776.340515 185.792465,772.267151   C182.270828,769.003662 182.606201,766.600525 185.962738,763.267212   C213.506943,735.912659 240.896973,708.402893 268.333466,680.939880   C363.363617,585.817688 458.428711,490.730255 553.333313,395.483032   C558.803772,389.992828 564.269348,387.052368 572.191589,387.852142   C580.787415,388.719940 589.491333,388.515381 598.147949,388.782501   C600.324036,388.849640 602.692627,388.744446 603.827698,391.066162   C605.012329,393.489349 603.913391,395.677856 602.301086,397.470398   C598.405518,401.801483 594.508362,406.142365 590.404236,410.273010   C515.480652,485.680420 440.521667,561.052612 365.580475,636.442505   C314.251068,688.079285 262.922638,739.716980 211.665192,791.425049   C209.386627,793.723572 207.785675,794.051697 205.532928,791.682251   C203.470978,789.513550 201.189911,787.553223 198.758087,785.246765  z"
   id="path3"
   style="fill:#41b6e6;fill-opacity:1" />

<path
   fill="#000000"
   opacity="1.000000"
   stroke="none"
   d=" M534.616821,913.519165   C519.124695,939.918030 486.151794,948.369080 459.598419,933.016235   C434.707886,918.624756 425.362213,884.826538 439.462372,860.195251   C454.896484,833.233643 488.128082,823.900208 514.680786,839.069397   C540.862183,854.026489 549.707520,886.614136 534.616821,913.519165  z"
   id="path5"
   style="fill:#41b6e6;fill-opacity:1" />
<path
   fill="#000000"
   opacity="1.000000"
   stroke="none"
   d=" M729.399536,809.625977   C710.865051,790.786377 706.078735,767.673584 715.952759,745.812195   C725.186707,725.368042 746.746887,712.747437 769.298767,714.585144   C793.046936,716.520325 811.061279,730.970703 817.790527,753.483459   C827.062744,784.503967 805.963257,817.599792 773.901184,822.267456   C757.337402,824.678955 742.644226,820.307922 729.399536,809.625977  z"
   id="path6"
   style="fill:#41b6e6;fill-opacity:1" />
<path
   fill="#000000"
   opacity="1.000000"
   stroke="none"
   d=" M748.723572,272.524902   C708.696472,258.626495 698.999634,209.209427 727.508606,181.850418   C743.389404,166.610184 762.632690,162.492188 783.443420,169.652847   C804.396362,176.862442 816.228882,192.286026 819.331543,214.130768   C823.996887,246.978424 796.437256,277.857117 760.809082,275.051117   C756.867126,274.740662 752.999939,273.481079 748.723572,272.524902  z"
   id="path7"
   style="fill:#41b6e6;fill-opacity:1" />
<path
   fill="#000000"
   opacity="1.000000"
   stroke="none"
   d=" M259.822052,202.395691   C270.716034,235.824005 251.859665,267.893250 217.752853,274.565063   C190.457443,279.904480 161.891190,260.488190 155.896088,232.521484   C149.748154,203.841812 166.442764,175.726059 194.793777,168.345276   C223.373367,160.904984 250.718719,176.053864 259.822052,202.395691  z"
   id="path8"
   style="fill:#41b6e6;fill-opacity:1" />
<path
   fill="#000000"
   opacity="1"
   stroke="none"
   d="m 153.13951,512.37403 c 3.92055,4.46232 8.2197,8.18816 12.07631,13.70554 -7.53361,-0.74604 -13.75514,-2.68576 -20.06676,-4.07908 -7.8961,-1.74304 -15.78417,-3.54866 -23.60238,-5.60594 -3.35949,-0.88405 -4.81683,-0.0186 -5.77005,3.32875 -3.56664,12.5245 -7.37638,24.98 -11.13877,37.44819 -0.50665,1.67898 -0.7175,3.5347 -2.20126,4.87028 -1.70341,-0.40675 -1.61471,-1.93549 -1.971,-3.12383 -3.912195,-13.04877 -7.922465,-26.07029 -11.622045,-39.17932 -1.02315,-3.62551 -2.59581,-4.20922 -6.05849,-3.33847 -12.9224,3.24931 -25.91973,6.20042 -38.88694,9.27195 -1.14545,0.27128 -2.27519,0.77247 -4.33595,-0.38565 11.02815,-11.87779 21.84992,-23.53327 33.13021,-35.68263 -11.12213,-12.06141 -22.02546,-23.88552 -32.90061,-35.67908 1.30879,-1.94417 2.65636,-0.91882 3.82479,-0.64381 12.9687,3.0525 25.96985,5.98468 38.86128,9.33752 4.05699,1.05515 5.45188,-0.069 6.52997,-3.88301 3.50115,-12.38619 7.35547,-24.67279 11.101395,-36.98932 0.47112,-1.54901 1.10701,-3.04789 1.69517,-4.64782 2.05555,0.85716 2.14147,2.662 2.58493,4.12339 3.64898,12.02495 7.19518,24.08106 10.82845,36.11083 1.91704,6.34732 1.95989,6.30081 8.64285,4.69396 12.22369,-2.93916 24.45558,-5.84426 36.6891,-8.74217 1.26967,-0.30078 2.54166,-1.01653 3.94962,-0.22211 0.38691,1.99378 -1.25433,2.91202 -2.30025,4.03911 -8.86719,9.55579 -17.65682,19.19019 -26.77057,28.50669 -2.96317,3.02907 -2.67374,4.96991 0.0451,7.76885 5.94987,6.12548 11.65717,12.48656 17.66595,18.99718 z"
   id="path9"
   style="stroke-width:0.900089;fill:#ef002b;fill-opacity:1" />
<path
   fill="#000000"
   opacity="1"
   stroke="none"
   d="m 643.29751,302.69557 c 14.85015,-3.39827 29.22274,-7.36484 44.51958,-9.01182 -2.00031,2.31279 -3.92525,4.69624 -6.0144,6.92581 -7.7881,8.31184 -15.5578,16.64338 -23.49296,24.81354 -2.62089,2.69856 -2.73268,4.46059 0.0641,7.33042 9.3081,9.55139 18.27543,19.43525 27.34417,29.21872 0.77516,0.8362 1.89373,1.53841 1.75007,3.74938 -15.76211,-2.59949 -30.84865,-7.83008 -47.0997,-10.61525 -4.66855,15.2565 -9.32804,30.48313 -13.99616,45.7382 -2.83695,-0.58099 -2.76646,-2.69403 -3.24238,-4.26095 -3.74177,-12.31989 -7.54643,-24.62458 -10.9894,-37.02899 -1.05743,-3.80975 -2.66983,-4.57162 -6.33968,-3.6295 -12.32618,3.16429 -24.72361,6.05176 -37.09989,9.0197 -1.70536,0.40898 -3.40676,1.14234 -5.27709,0.50669 -0.47592,-2.09981 1.26108,-2.94696 2.28505,-4.05241 8.55557,-9.23621 17.18893,-18.40029 25.77066,-27.61242 4.13209,-4.43565 4.12363,-4.66874 8.2e-4,-9.10945 -8.56837,-9.22896 -17.18009,-18.41779 -25.71319,-27.67919 -1.04018,-1.12896 -2.74795,-1.94876 -2.52398,-4.53929 6.1924,1.35868 12.27509,2.64316 18.33328,4.03477 8.17513,1.87789 16.38136,3.65354 24.47222,5.84904 3.50394,0.95074 4.8939,-0.12745 5.83992,-3.33498 3.55778,-12.06281 7.25301,-24.08535 10.94967,-36.10665 0.55542,-1.80627 0.71133,-3.84498 2.41427,-5.24308 1.97834,0.91766 1.8772,2.94609 2.37289,4.54123 3.82077,12.29467 7.55852,24.61511 11.31193,36.93065 0.61947,2.03248 0.99695,4.29158 4.36025,3.56583 z"
   id="path10"
   style="stroke-width:0.900089;fill:#ef002b;fill-opacity:1" />
<path
   fill="#000000"
   opacity="1"
   stroke="none"
   d="m 489.02722,158.35435 c -3.30641,-10.95811 -6.62703,-21.53568 -9.70499,-32.18341 -0.85595,-2.96098 -1.99567,-3.72989 -5.10154,-2.91876 -12.60029,3.2907 -25.27922,6.27981 -37.92296,9.40522 -1.72335,0.426 -3.40882,1.04164 -6.04769,0.21181 4.09281,-4.66961 7.79203,-9.06683 11.6824,-13.28787 5.99553,-6.50511 11.98562,-13.02674 18.25707,-19.26062 2.68184,-2.665798 2.46379,-4.411988 0.0162,-6.995458 -8.97188,-9.46987 -17.77242,-19.10218 -26.62196,-28.68764 -1.09006,-1.18072 -2.38185,-2.26341 -2.78536,-4.4518 4.88981,0.25517 9.21259,1.88126 13.63123,2.88717 9.34024,2.12632 18.62917,4.47703 27.95029,6.68873 5.80042,1.3763 5.81621,1.33975 7.62746,-4.61908 3.65889,-12.03712 7.28853,-24.083217 10.99368,-36.106063 0.41576,-1.349033 0.44881,-2.968812 2.04127,-4.16997 2.17825,2.608305 2.47626,5.807806 3.37731,8.658405 3.38525,10.710325 6.72499,21.444518 9.6497,32.286328 1.18829,4.40494 3.09123,5.25096 7.3308,4.14696 12.89115,-3.35692 25.87905,-6.34271 38.83288,-9.45781 0.83131,-0.19989 1.69366,-0.27042 2.5582,-0.40368 0.74176,2.16001 -0.93233,2.88201 -1.84,3.87584 -8.79708,9.63175 -17.558,19.29927 -26.52445,28.77181 -2.71131,2.86433 -2.91117,4.81942 -0.0443,7.804268 8.93096,9.29847 17.57794,18.87019 26.29712,28.37071 1.06671,1.16229 2.43382,2.19702 2.7741,3.91214 -1.61092,1.2689 -3.00923,0.33813 -4.37442,0.004 -12.35865,-3.02695 -24.70663,-6.09717 -37.06404,-9.12897 -5.68712,-1.39529 -5.99908,-1.16907 -7.76588,4.68698 -3.72122,12.33405 -7.46636,24.66089 -11.18898,36.99451 -0.38453,1.27399 -0.499,2.65677 -2.19694,4.13628 -1.99454,-3.49415 -2.36413,-7.37116 -3.8362,-11.16979 z"
   id="path11"
   style="stroke-width:0.900089;fill:#ef002b;fill-opacity:1" /><path
   fill="#000000"
   opacity="1"
   stroke="none"
   d="m 874.42002,553.51634 c -3.30641,-10.95811 -6.62703,-21.53568 -9.70498,-32.1834 -0.85595,-2.96098 -1.99568,-3.72989 -5.10155,-2.91877 -12.60028,3.29071 -25.27922,6.27982 -37.92296,9.40523 -1.72335,0.42599 -3.40882,1.04164 -6.04769,0.21181 4.09281,-4.66961 7.79203,-9.06682 11.6824,-13.28787 5.99553,-6.50511 11.98563,-13.02674 18.25708,-19.26062 2.68183,-2.6658 2.46378,-4.41199 0.0162,-6.99546 -8.97188,-9.46987 -17.77242,-19.10219 -26.62196,-28.68764 -1.09007,-1.18072 -2.38186,-2.26341 -2.78537,-4.45181 4.88982,0.25517 9.2126,1.88127 13.63124,2.88718 9.34024,2.12632 18.62916,4.47703 27.95028,6.68873 5.80043,1.3763 5.81622,1.33974 7.62746,-4.61909 3.6589,-12.03711 7.28854,-24.08321 10.99368,-36.10606 0.41577,-1.34902 0.44882,-2.96881 2.04128,-4.16997 2.17825,2.60831 2.47626,5.80781 3.37731,8.65841 3.38525,10.71032 6.72498,21.44452 9.6497,32.28632 1.18829,4.40495 3.09123,5.25097 7.3308,4.14697 12.89115,-3.35692 25.87905,-6.34272 38.83288,-9.45782 0.83131,-0.19988 1.69366,-0.27041 2.55821,-0.40367 0.74175,2.16001 -0.93234,2.88201 -1.84002,3.87584 -8.79707,9.63175 -17.55799,19.29927 -26.52444,28.77181 -2.71131,2.86433 -2.91118,4.81942 -0.0443,7.80428 8.93095,9.29847 17.57795,18.87018 26.29712,28.3707 1.06671,1.16229 2.43382,2.19702 2.7741,3.91214 -1.61092,1.2689 -3.00923,0.33812 -4.37442,0.004 -12.35865,-3.02695 -24.70663,-6.09718 -37.06405,-9.12898 -5.68711,-1.39528 -5.99907,-1.16906 -7.76588,4.68699 -3.72122,12.33405 -7.46635,24.66089 -11.18898,36.9945 -0.38452,1.274 -0.49899,2.65678 -2.19692,4.13629 -1.99456,-3.49416 -2.36414,-7.37116 -3.83621,-11.1698 z"
   id="path11-6"
   style="stroke-width:0.900089;fill:#ef002b;fill-opacity:1" />
<path
   fill="#000000"
   opacity="1.000000"
   stroke="none"
   d=" M616.473450,883.591919   C604.249817,888.203918 592.000244,891.323975 579.766785,894.546753   C575.505493,895.669312 573.637512,894.699951 572.869202,890.409851   C571.258240,881.415527 569.673706,872.398376 567.514160,863.527954   C566.418701,859.027954 568.079468,857.643188 571.992859,856.776062   C583.058044,854.323975 593.819092,850.798523 604.492432,847.018616   C633.978699,836.576233 662.041748,823.260559 687.939087,805.584045   C693.412903,801.847839 693.411926,801.878845 697.331787,807.473755   C702.493347,814.840820 707.525818,822.306152 712.927124,829.493774   C715.418701,832.809326 714.633728,834.482422 711.464966,836.554626   C681.786926,855.962219 650.691895,872.479248 616.473450,883.591919  z"
   id="path12"
   style="fill:#41b6e6;fill-opacity:1" />
<path
   fill="#000000"
   opacity="1.000000"
   stroke="none"
   d=" M395.560913,95.533112   C397.721313,104.853195 399.653381,113.797791 401.870270,122.671204   C402.859100,126.629120 401.633789,128.335953 397.696075,129.335144   C356.410583,139.811218 318.382324,157.426437 283.627869,182.034348   C280.247803,184.427612 278.259308,184.152145 275.977936,180.795578   C270.828339,173.219101 265.639648,165.652603 260.080475,158.377304   C256.739594,154.005066 258.597443,151.897522 262.301880,149.350876   C296.891022,125.572380 334.103271,107.318344 374.490112,95.683784   C379.606689,94.209808 384.800537,92.984154 389.861725,91.344452   C393.636993,90.121353 395.202057,91.481529 395.560913,95.533112  z"
   id="path13"
   style="fill:#41b6e6;fill-opacity:1" />
<path
   fill="#000000"
   opacity="1.000000"
   stroke="none"
   d=" M700.350525,177.305328   C694.895691,184.742981 694.839844,184.824417 687.387695,179.716263   C653.396790,156.417023 616.457642,139.578903 576.601746,129.167786   C572.697571,128.147934 571.599731,126.498093 572.709167,122.498589   C575.152710,113.689232 577.456177,104.814812 579.189636,95.845726   C580.057373,91.355820 581.703430,90.588341 585.852600,91.707695   C618.794189,100.594505 650.443298,112.633118 680.135193,129.601181   C691.282593,135.971542 702.034973,142.947845 712.739502,150.021072   C716.245361,152.337677 717.078064,154.341751 714.271667,157.950714   C709.470337,164.125214 705.101929,170.636414 700.350525,177.305328  z"
   id="path14"
   style="fill:#41b6e6;fill-opacity:1" />
<path
   fill="#000000"
   opacity="1.000000"
   stroke="none"
   d=" M831.096680,633.205322   C838.743958,615.174072 844.112427,596.813171 848.420715,578.147644   C849.322815,574.239319 850.741394,573.391418 854.539978,574.171692   C863.666321,576.046082 872.869873,577.561462 882.069397,579.054871   C885.868286,579.671509 887.509460,580.892883 886.541382,585.308472   C876.449768,631.336914 858.390381,674.010010 833.193176,713.759399   C831.037476,717.159973 829.243225,717.399170 826.090210,715.165955   C818.347412,709.681519 810.513245,704.312073 802.522461,699.198547   C799.038757,696.969177 798.792419,695.090637 800.946472,691.608887   C812.434937,673.039734 822.702271,653.815918 831.096680,633.205322  z"
   id="path15"
   style="fill:#41b6e6;fill-opacity:1" />
<path
   fill="#000000"
   opacity="1.000000"
   stroke="none"
   d=" M872.624023,410.803040   C866.202393,412.219238 860.150269,413.368713 854.183167,414.858490   C850.440369,415.792938 848.672791,414.695435 847.873535,410.884857   C840.387268,375.194000 826.728455,341.871613 808.891724,310.183685   C806.278687,305.541473 803.494995,300.982788 800.550659,296.544434   C798.896484,294.050842 799.130554,292.503510 801.646179,290.830170   C809.968689,285.294159 818.261841,279.707306 826.413513,273.924652   C829.619629,271.650330 831.415161,272.079407 833.503296,275.425659   C844.727173,293.412354 854.525879,312.119904 862.907410,331.593964   C872.674438,354.287048 880.355347,377.645020 885.781128,401.745789   C887.161621,407.877716 887.066895,408.013611 880.870911,409.184143   C878.256165,409.678101 875.643188,410.181274 872.624023,410.803040  z"
   id="path16"
   style="fill:#41b6e6;fill-opacity:1" />
<path
   fill="#000000"
   opacity="1.000000"
   stroke="none"
   d=" M106.626358,342.708130   C115.792183,319.135254 127.491486,297.292969 140.465103,276.078461   C142.958313,272.001526 145.041397,271.381927 149.023682,274.295746   C156.411423,279.701324 164.114670,284.686676 171.811493,289.653412   C174.890381,291.640167 175.855835,293.431549 173.632324,296.867218   C152.359253,329.737885 137.622391,365.467560 127.642349,403.223602   C126.801964,406.402954 125.529884,407.234344 122.411995,406.371033   C112.788658,403.706299 103.125854,401.179047 93.445763,398.727173   C90.076195,397.873688 89.407982,396.177704 90.274269,392.884369   C94.725166,375.963501 100.206825,359.389313 106.626358,342.708130  z"
   id="path17"
   style="fill:#41b6e6;fill-opacity:1" />
</svg>
